<?xml version="1.0" encoding="utf-8"?>
<!-- Generator: Adobe Illustrator 22.0.1, SVG Export Plug-In . SVG Version: 6.00 Build 0)  -->
<svg version="1.1" id="Layer_1" xmlns="http://www.w3.org/2000/svg" xmlns:xlink="http://www.w3.org/1999/xlink" x="0px" y="0px"
	 viewBox="0 0 434 166.9" style="enable-background:new 0 0 434 166.9;" xml:space="preserve">
<style type="text/css">
	.st0{clip-path:url(#SVGID_2_);fill:#0E5F99;}
	.st1{clip-path:url(#SVGID_2_);fill:#58595B;}
</style>
<g>
	<defs>
		<rect id="SVGID_1_" width="434" height="166.9"/>
	</defs>
	<clipPath id="SVGID_2_">
		<use xlink:href="#SVGID_1_"  style="overflow:visible;"/>
	</clipPath>
	<path class="st0" d="M137.1,83c0,0.1,0,0.2,0,0.2c0,0.1,0,0.1,0,0.2s0,0.1,0,0.2c0,0.1,0,0.1,0,0.1s0,0,0,0
		c0.6,2.3,2.6,4.3,5.2,4.3c0.3,0,0.5,0,0.8-0.1c0.7-0.1,1.5-0.4,2.3-1.1c0.2-0.1,0.3-0.3,0.5-0.5c0.7-0.7,1.2-1.5,1.5-2.4
		c0.1-0.3,0.2-0.6,0.3-0.9c0.6-2.8-0.2-6-2-7.4c-0.6-0.5-1.3-0.8-2.1-0.8c-0.6,0-1.3,0.1-2.1,0.5c-0.2,0.1-0.5,0.2-0.7,0.4
		c-0.1,0.1-0.2,0.2-0.4,0.3c-0.5,0.4-0.9,0.7-1.3,1.1l-0.4,0.4c-1,1.1-1.5,2.2-1.7,3.2c0,0.2-0.1,0.3-0.1,0.5c0,0.2,0,0.3,0,0.4
		c0,0,0,0.1,0,0.1c0,0.5,0,0.8,0,1.2C137.1,83,137.1,83,137.1,83"/>
	<path class="st0" d="M127.9,95c-0.3-0.7-0.6-1.4-0.9-2.1c-2.5-4.7-7.4-8.7-13.7-11.9c-0.9-0.5-1.8-0.9-2.8-1.3
		c-1.9-0.8-3.9-1.6-5.9-2.4s-4.2-1.4-6.4-2c-4.4-1.2-8.9-2.1-13.4-2.8c-1.1-0.2-2.3-0.3-3.4-0.5c-2.8-0.3-5.6-0.6-8.4-0.7
		c5.3-2.6,10.6-5.8,15.3-9.3c1.6-1.2,3.1-2.4,4.5-3.7c3.2-3,6.2-6.6,8.6-10.6c1.3-2.2,2.5-4.5,3.4-6.9c0.5-1.4,1-2.9,1.3-4.3
		c0.1-0.5,0.2-1,0.3-1.4c1.2-6.7-0.2-13.5-5.7-19.1l-0.8-0.8c-0.5-0.5-1.1-1-1.7-1.4c-3.9-3.1-8.2-4.5-12.5-4.5
		c-0.8,0-1.7,0.1-2.6,0.2c-0.9,0.1-1.7,0.3-2.6,0.4c-1.7,0.4-3.4,1-5.1,1.7c-0.8,0.4-1.7,0.7-2.5,1.2c-0.4,0.2-0.8,0.4-1.3,0.7
		c-0.8,0.4-1.7,0.9-2.5,1.4c-0.8,0.5-1.6,1-2.4,1.6c-2.4,1.6-4.7,3.5-6.9,5.4c-0.4,0.3-0.7,0.6-1.1,1c-3.6,3.2-6.8,6.5-9.4,9.4
		c-2,2.6-3.8,4.7-4.8,5.5c-0.1,0.1-0.2,0.1-0.3,0.2c-0.2,0.2-0.4,0.2-0.6,0.2c-0.2,0-0.4-0.1-0.5-0.2c-0.3-0.3-0.5-0.9-0.5-1.8
		c0-0.3,0-0.7,0-1.1c0-0.8,0.1-1.7,0.2-2.9c0-0.3,0.1-0.6,0.1-0.9c0.1-1,0.1-2,0.2-3c0.1-2,0.2-4.1,0.3-6.1c0.1-2.1,0.1-4.2,0.2-6.3
		c0-1,0-2.1,0-3.1c0-2.1,0-4.2-0.1-6.2c-0.3-1.9-1.9-3.3-3.8-3.3c-1.2,0.2-2.2,0.9-2.7,1.8c-0.3,0.6-0.4,1.3-0.3,2
		c0,4.3,0,8.7-0.1,13.2c0,1.5-0.1,3-0.2,4.5c-0.2,3.5-0.3,6.6-0.4,9.4c-0.1,1.6-0.2,3.1-0.3,4.6c-0.5,6.2-1.6,11.5-5.1,18.2
		c-0.8,1.6-1.8,3.2-2.9,5c-2.9,4.7-6.1,10.2-9.2,16c-3.6,6.8-6.9,14-9.2,20.8c-1,2.9-1.8,5.8-2.3,8.5c-0.4,2.1-0.5,4.9-0.2,7.6
		c0,0.2,0.1,0.5,0.1,0.7c0.1,0.5,0.1,1,0.2,1.4c0.2,0.9,0.4,1.9,0.8,2.7c1.1,3,3.2,5.2,6.5,5.2c2.7,0,5.1-1.2,7.3-3.1
		c0.4-0.3,0.7-0.7,1.1-1c3.1-3.3,5.7-8.3,7.7-13.7c0.2-0.6,0.5-1.2,0.7-1.8c3.3-9.2,5.2-19.2,6-24.2c0.4-2,0.7-3.8,0.9-5.6
		c0.3-1.8,0.5-3.5,0.7-5.1c0.2-1.2,0.3-2.4,0.5-3.6c0.2-1.5,0.4-3,0.7-4.5c0.1-0.7,0.3-1.5,0.5-2.2c0.2-0.7,0.4-1.4,0.6-2.2
		c0.2-0.7,0.4-1.4,0.7-2.2c1.4-4,3.7-8,7.4-12.4c1.6-1.9,3.6-4.3,5.8-6.8c0.6-0.7,1.3-1.5,2-2.2c2.7-3,5.8-6,9-8.8
		c1.6-1.4,3.3-2.7,5-3.8c2.5-1.7,5.2-3.2,7.8-4.1c2.2-0.8,4.4-1.2,6.5-1.2c0.9,0,1.8,0.1,2.7,0.3c2.7,0.5,5.5,1.9,7.9,4.4
		c3.6,3.6,4.6,7.9,4,12.4c-0.1,0.7-0.2,1.5-0.4,2.2c-0.4,1.9-1.1,3.7-2,5.5c-1.6,3.3-3.7,6.3-6,9c-1,1.2-2.1,2.2-3.1,3.2
		c-2.6,2.3-5.2,4.3-8,6.2c-2.8,1.9-5.7,3.6-8.8,5.2c-0.4,0.2-0.8,0.4-1.4,0.7c-0.5,0.3-1.1,0.5-1.8,0.9c-0.4,0.2-0.9,0.4-1.3,0.6
		c-1.4,0.6-2.9,1.3-4.4,2c-0.5,0.2-1,0.4-1.5,0.7c-0.5,0.2-1,0.4-1.4,0.6c-1.4,0.6-2.6,1.2-3.6,1.6c-0.2,0.1-0.4,0.2-0.6,0.3
		c-0.1,0.1-0.2,0.1-0.4,0.2c-1.5,0.5-2.3,1.3-2.6,1.7c-0.4,0.4-0.7,0.9-0.8,1.4c-0.2,1.1,0.1,1.9,0.6,2.5c0.2,0.2,0.4,0.4,0.7,0.5
		c0.6,0.4,1.5,0.6,2.4,0.7c0.6,0.1,1.1,0.1,1.8,0.1c0.3,0,0.7,0,1,0c0.3,0,0.7,0,1-0.1c0.7-0.1,1.3-0.1,1.9-0.2
		c1.2-0.2,2.3-0.4,3.1-0.5h0.8c1,0,2,0,3,0c1.5,0,3.1,0.1,4.7,0.2c1.1,0.1,2.1,0.1,3.2,0.2c3.8,0.3,7.7,0.8,11.6,1.4
		c1.1,0.2,2.2,0.4,3.3,0.6c1.6,0.3,3.3,0.7,4.8,1c0.5,0.1,1.1,0.3,1.6,0.4c2.6,0.7,5.1,1.4,7.5,2.3c1.4,0.5,2.8,1.1,4.1,1.6
		c6,2.7,10.5,6.2,12.2,10.6c0.1,0.3,0.2,0.6,0.3,1c1,3.5,0.2,7.6-3.1,12.3c-0.3,0.4-0.6,0.9-0.9,1.3c-3,3.9-7.7,8.3-14.5,13
		c-4.3,3-10.3,6.5-17.3,10c-0.8,0.4-1.6,0.8-2.4,1.2c-4,1.9-8.3,3.9-12.7,5.7c-8,3.3-16.4,6.2-24.5,8.2c-1.8,0.4-3.6,0.9-5.3,1.2
		c-5.3,1.1-10.3,1.7-14.9,1.7c-3.2,0-6.9-0.2-10.1-1.1c-0.9-0.3-1.8-0.6-2.7-1c-0.4-0.2-0.8-0.4-1.2-0.7c-2.3-1.4-4.1-3.6-4.7-6.7
		c-0.2-1.7-1.5-2.9-3.1-3c-0.2,0-0.5,0-0.7,0c-1.9,0.3-3.3,1.9-3,3.8c0.4,2,1,3.7,1.8,5.3c0.6,1.2,1.4,2.3,2.2,3.3
		c3.4,3.8,8.4,5.7,14,6.5c2.4,0.3,5,0.5,7.5,0.5c28,0,69.2-19.5,86.1-33.1c2.7-2.1,5-4.2,7-6.2c1-1,1.9-2,2.8-3
		c1.3-1.5,2.4-2.9,3.3-4.3c1.9-2.8,3-5.4,3.7-7.9c0.1-0.4,0.2-0.8,0.3-1.2c0.2-1.2,0.3-2.4,0.2-3.6C128.8,97.9,128.5,96.5,127.9,95
		 M31.5,73.3c-0.1,0.8-0.2,1.9-0.4,3.1c-0.1,0.8-0.3,1.7-0.4,2.6c-0.4,2.4-0.9,5.1-1.6,8c-1.1,5.2-2.7,11-4.5,16.2
		c-1,2.9-2.1,5.5-3.3,7.8c-0.2,0.5-0.5,0.9-0.7,1.3c-0.7,1.3-1.5,2.4-2.3,3.3c-0.3,0.3-0.5,0.6-0.8,0.8c-0.5,0.5-1.1,0.9-1.6,1.2
		c-0.4,0.2-1,0.3-1.5-0.2c0,0,0,0-0.1-0.1c-0.1-0.1-0.1-0.1-0.1-0.2c-2.6-3.6,0.5-13.8,4.3-23.3c1.2-2.9,2.4-5.7,3.6-8.3
		c0.7-1.5,1.4-3,2.1-4.3c1.3-2.6,2.4-4.7,3-5.9c0.3-0.6,0.8-1.6,1.4-2.5c0.9-1.6,2-3.2,2.7-3.2c0.2,0,0.3,0.2,0.4,0.5
		C31.8,70.8,31.7,71.8,31.5,73.3"/>
	<path class="st0" d="M433,107.8c-0.1-0.2-0.3-0.4-0.5-0.5c-0.5-0.4-1-0.6-1.5-0.6c-0.8,0-1.4,0.3-1.9,0.8c-1.3,1.1-3.2,2.7-5.2,4.4
		c-0.7,0.6-1.4,1.2-2.1,1.7c-0.7,0.6-1.4,1.2-2.1,1.7c-1,0.8-2,1.6-3,2.3c-0.9,0.7-1.8,1.3-2.6,1.8c-1.8,1.1-3.7,2.1-5.5,2.9
		c-5.5,2.6-10.8,4.1-15.1,4.1c-2.3,0-4.4-0.5-5.9-1.6c-0.8-0.5-1.4-1.2-1.9-2.1c-1.1-2-1.4-4.9-0.6-8.8c0.1-0.7,0.3-1.2,0.5-1.5
		c0.1-0.1,0.1-0.1,0.2-0.2c0.3-0.2,0.6-0.2,1.1-0.2c4.4,0.1,10.6-1.7,15.6-4.8c0.9-0.6,1.8-1.2,2.6-1.9c1.2-1,2.3-2.1,3.2-3.3
		c0,0,0,0,0,0s0.3-0.4,0.8-1.1c0.1-0.2,0.2-0.4,0.3-0.6c0.4-0.6,0.7-1.4,1-2.2c0-0.1,0-0.1,0.1-0.2c0.1-0.3,0.2-0.5,0.2-0.8
		c0,0,0,0,0,0c0.1-0.7,0.2-1.5,0.1-2.2c-0.1-0.8-0.3-1.6-0.6-2.3c-0.2-0.5-0.6-1-1-1.6c0,0,0,0,0,0c-0.1-0.2-0.3-0.3-0.4-0.5
		c-0.2-0.2-0.3-0.3-0.5-0.5c-0.8-0.7-1.7-1.2-2.5-1.6c-0.9-0.3-1.8-0.5-2.7-0.5c-0.3,0-0.5,0-0.8,0c-0.1,0-0.2,0-0.3,0
		c-0.2,0-0.4,0-0.5,0.1c-0.1,0-0.2,0-0.3,0.1c-0.2,0-0.3,0.1-0.5,0.1c-0.1,0-0.2,0.1-0.3,0.1c-0.2,0-0.3,0.1-0.5,0.1
		c-0.1,0-0.2,0.1-0.4,0.1c-0.2,0.1-0.3,0.1-0.5,0.2c-0.1,0-0.2,0.1-0.4,0.1c-0.2,0.1-0.3,0.1-0.5,0.2c-0.1,0.1-0.2,0.1-0.4,0.2
		c-0.2,0.1-0.3,0.1-0.5,0.2c-0.1,0.1-0.3,0.1-0.4,0.2c-0.2,0.1-0.3,0.2-0.5,0.2c-0.1,0.1-0.3,0.1-0.4,0.2c-0.1,0.1-0.3,0.2-0.5,0.3
		c-0.1,0.1-0.3,0.2-0.4,0.2c-0.1,0.1-0.3,0.2-0.4,0.3c-0.1,0.1-0.3,0.2-0.4,0.3c-0.1,0.1-0.3,0.2-0.4,0.3c-0.1,0.1-0.3,0.2-0.4,0.3
		c-0.1,0.1-0.3,0.2-0.4,0.3c-0.1,0.1-0.3,0.2-0.4,0.3c-0.1,0.1-0.3,0.2-0.4,0.3c-0.1,0.1-0.3,0.2-0.4,0.3c-0.1,0.1-0.3,0.2-0.4,0.3
		c-0.1,0.1-0.3,0.2-0.4,0.3c-0.1,0.1-0.3,0.2-0.4,0.3c-0.1,0.1-0.3,0.3-0.4,0.4c-0.1,0.1-0.2,0.2-0.4,0.3c-0.1,0.1-0.3,0.3-0.4,0.4
		c-0.1,0.1-0.2,0.2-0.3,0.3c-0.1,0.1-0.3,0.3-0.4,0.4c-0.1,0.1-0.2,0.2-0.3,0.3c-0.1,0.1-0.3,0.3-0.4,0.4c-0.1,0.1-0.2,0.2-0.3,0.3
		c-0.1,0.2-0.3,0.3-0.4,0.5c-0.1,0.1-0.2,0.2-0.3,0.3c-0.1,0.2-0.3,0.3-0.4,0.5c-0.1,0.1-0.2,0.2-0.2,0.3c-0.1,0.2-0.3,0.3-0.4,0.5
		c-0.1,0.1-0.1,0.2-0.2,0.3c-0.1,0.2-0.3,0.4-0.4,0.5c-0.1,0.1-0.1,0.2-0.2,0.2c-0.1,0.2-0.3,0.4-0.4,0.5c-0.1,0.1-0.1,0.1-0.2,0.2
		c-0.1,0.2-0.3,0.4-0.4,0.6c0,0.1-0.1,0.1-0.1,0.2c-0.1,0.2-0.3,0.4-0.4,0.6c0,0.1-0.1,0.1-0.1,0.2c-0.1,0.2-0.3,0.4-0.4,0.6
		c0,0-0.1,0.1-0.1,0.1c-0.1,0.2-0.3,0.4-0.4,0.6l-0.1,0.1c-0.1,0.2-0.3,0.4-0.4,0.6c0,0,0,0,0,0.1c-0.1,0.2-0.2,0.4-0.3,0.6
		c0,0,0,0,0,0c-0.1,0.2-0.2,0.4-0.3,0.6c0,0,0,0,0,0c-0.1,0.2-0.2,0.4-0.3,0.6c-0.8,1.4-2.1,3.5-3.8,5.1c0,0,0,0,0,0.1c0,0,0,0,0,0
		c-0.7,0.6-1.4,1.3-2.2,1.9c0,0-0.1,0.1-0.1,0.1c-0.2,0.2-0.4,0.3-0.6,0.5c-0.1,0.1-0.3,0.2-0.4,0.3c-0.2,0.1-0.3,0.3-0.5,0.4
		c-0.2,0.1-0.3,0.3-0.5,0.4c-0.2,0.1-0.3,0.3-0.5,0.4c-0.3,0.3-0.6,0.5-0.9,0.7c-0.1,0.1-0.2,0.2-0.3,0.2c-0.2,0.2-0.5,0.4-0.7,0.6
		c-0.1,0.1-0.2,0.2-0.3,0.3c-0.2,0.2-0.4,0.3-0.6,0.5c-0.1,0.1-0.2,0.2-0.3,0.3c-0.2,0.2-0.5,0.4-0.7,0.6c-0.1,0-0.1,0.1-0.2,0.1
		c-0.3,0.2-0.6,0.4-0.9,0.6c-0.1,0.1-0.1,0.1-0.2,0.2c-0.2,0.1-0.4,0.3-0.6,0.4c-0.1,0.1-0.2,0.1-0.3,0.2c-0.2,0.1-0.4,0.2-0.6,0.4
		c-0.1,0-0.2,0.1-0.2,0.1c-0.2,0.1-0.5,0.3-0.7,0.4c-2.3,1.5-4.3,2.6-6,3.3c-0.8,0.4-1.6,0.6-2.3,0.8c-0.7,0.2-1.4,0.3-2,0.3
		c-1.2,0-2.3-0.3-3.2-0.8c-1.6-0.9-2.8-2.4-3.9-4.2c-0.2-0.4-0.5-0.7-0.7-1.1c-0.4-0.8-0.9-1.6-1.4-2.4c-1.1-2.1-2.3-4.2-3.9-6.2
		c-0.4-0.4-0.8-0.8-1.3-1.2c-0.2-0.1-0.4-0.3-0.6-0.4c0-0.5,0-1,0-1.4c0-0.7,0-1.5,0-2.2c0-0.5,0-1,0-1.5c-0.1-2-0.3-4-0.8-5.7
		c-0.1-0.4-0.3-0.9-0.4-1.3c-0.2-0.6-0.5-1.2-0.9-1.7c-0.3-0.5-0.7-1-1.2-1.4c-1.3-1.3-3.2-2.1-5.7-2.1c-0.8,0-1.9,0-2.7,0.3
		c-4.1,0.7-8.5,3.1-12.6,6.4c-2.5,2-4.8,4.3-6.9,6.8c-0.3,0.4-0.8,0.7-1.2,1.1c-1.2,1-2.7,2.2-4.4,3.5c-0.7,0.5-1.4,1-2.1,1.5
		c-2.5,1.8-5.3,3.7-8,5.3c1.7-3,3-5.9,3.7-8.2c1.9-6.5,1.1-17.4-7.6-17.6c-7.6-0.2-14.2,6.1-19.2,13.1c-3,4.2-5.4,8.7-7.1,12.1
		c-0.3,0.7-0.9,2-1.5,3.6c-0.8,2-1.8,4.4-2.8,6.9c-0.4,1-0.8,2-1.3,3.1c-1.1,2.5-2.1,5-3.1,7.1c-0.3-2.2-0.4-4.7-0.5-7.3
		c-0.1-3.2-0.1-6.7-0.1-10.3c0-0.6,0-1.2,0-1.8c0.1-2.4,0.2-4.9,0.3-7.4c0.1,0,0.2-0.1,0.3-0.2c0.1-0.1,0.1-0.2,0.3-0.4
		c2.6-4.5,5-9.7,7.2-15.3c1-2.4,1.9-4.9,2.7-7.4c1.8-5,3.3-10.3,4.7-15.6c0.5-1.8,0.9-3.5,1.3-5.3c2.9-12.4,4.5-24.8,4.4-35.2
		c0-0.8,0-2.3-0.2-4.1c0-0.2,0-0.4-0.1-0.6c-0.1-1.2-0.3-2.4-0.6-3.7c-0.7-3.2-2.1-6.1-4.6-6.1c-1.1,0-2.1,0.7-3.2,1.8
		c-2.3,2.5-4.4,7.4-6.5,13.5c-0.1,0.4-0.3,0.8-0.4,1.2c-5.5,16.9-9.6,41.6-10.3,47.8c-0.4,3.4-0.8,7.1-1.1,10.9
		c-0.1,1.3-0.2,2.5-0.3,3.8c-0.3,3.9-0.5,7.8-0.6,11.8c0,1.3-0.1,2.7-0.1,4c-0.2,0.1-0.3,0.3-0.5,0.4c-0.9,0.7-1.9,1.6-3.1,2.7
		c-0.5,0.4-1,0.8-1.5,1.3c-0.8,0.7-1.6,1.4-2.5,2.1c-0.3,0.2-0.6,0.5-0.9,0.7c-2.1,1.7-4.3,3.3-6.5,4.8c-0.9,0.6-1.9,1.2-2.8,1.8
		c-0.6,0.4-1.2,0.7-1.8,1c-1.2,0.6-2.4,1.1-3.4,1.5c-1.1,0.4-2.1,0.6-3,0.6h-0.8c-2-0.6-2.9-2.4-3.4-4.4c-0.4-1.9-0.4-3.9-0.4-5.4
		c0-1.2,0-4.7,0.2-7c0.1-0.8,0.2-1.4,0.3-1.7c1.6-3,3.1-6.3,4.5-9.7c0.5-1.4,1.1-2.8,1.6-4.2c0.3-0.7,0.5-1.4,0.7-2.2
		c1.7-5.1,3.2-10.4,4.5-15.8c0.2-0.8,0.4-1.5,0.6-2.3c0.5-2.3,1.1-4.7,1.5-7c2.1-10.1,3.6-20,4.8-28.6c0.1-0.5,0.1-1.1,0.2-1.7
		c0.1-0.6,0.2-1.3,0.3-2.1c0.2-1.5,0.4-3.2,0.6-5c0.1-0.9,0.2-1.9,0.3-2.8s0.2-1.9,0.3-2.9c0.2-2.5,0.3-5.1,0.4-7.6
		c0-1.2,0-2.3-0.1-3.4l0,0c0,0,0-4-1.1-7.8c0-0.1-0.1-0.2-0.1-0.4c-0.1-0.2-0.1-0.4-0.2-0.5c0-0.1-0.1-0.3-0.2-0.4
		c-0.1-0.3-0.2-0.5-0.3-0.7c0,0,0,0,0-0.1c-0.9-2.2-2.4-4-4.6-4.4c0,0,0,0-0.1,0C230.3,0,230.1,0,230,0c0,0,0,0,0,0s0,0,0,0
		c-0.2,0-0.4,0-0.5,0c0,0-0.1,0-0.1,0c-0.2,0-0.3,0.1-0.4,0.1c-0.1,0-0.2,0.1-0.3,0.1c-0.1,0-0.1,0.1-0.2,0.1
		c-0.1,0.1-0.2,0.1-0.3,0.2c-0.6,0.4-1,1.1-1.4,1.8c-0.3,0.5-0.6,1.1-0.8,1.7c-0.4,1-0.7,2-1,2.8c-5.7,21.8-9.6,44-12.1,66.5
		c-0.8,7.5-1.5,15-2.1,22.5c-0.1,1.1-0.2,2.3-0.3,3.5c-0.3,3.6-0.5,7.5-0.7,11.2c0,0-0.1,0.1-0.3,0.2c0,0-0.1,0-0.1,0.1
		c-0.1,0.1-0.2,0.1-0.3,0.2c-0.3,0.2-0.6,0.5-0.9,0.8c-0.2,0.2-0.4,0.4-0.5,0.4c-3,2.6-7.8,6.7-12.6,10.1c-1.3,0.9-2.5,1.7-3.8,2.4
		c-0.3,0.2-0.6,0.4-0.9,0.5c-0.6,0.3-1.2,0.7-1.8,0.9c-0.6,0.3-1.2,0.5-1.7,0.8c-1.4,0.5-2.7,0.9-3.9,0.9h-0.8
		c-3.8-1.1-3.8-6.8-3.8-9.8c0-1.2,0-4.7,0.2-7c0.1-0.8,0.2-1.4,0.3-1.7c1.6-3,3.1-6.3,4.5-9.7c0.5-1.4,1.1-2.8,1.6-4.2
		c0.3-0.7,0.5-1.4,0.7-2.2c1.7-5.1,3.2-10.4,4.5-15.8c0.2-0.8,0.4-1.5,0.6-2.3c0.5-2.3,1-4.7,1.5-7c2.1-10.1,3.6-20,4.8-28.6
		c0.1-0.5,0.1-1.1,0.2-1.7c0.1-0.6,0.2-1.3,0.3-2.1c0.2-1.5,0.4-3.2,0.6-5c0.1-0.9,0.2-1.9,0.3-2.8s0.2-1.9,0.3-2.9
		c0.2-2.5,0.3-5.1,0.4-7.6c0-0.7,0-1.5,0-2.2c0-0.4,0-1.1-0.1-1.9c0-0.1,0-0.1,0-0.2c0-0.2,0-0.5-0.1-0.8c-0.2-2.4-0.5-4.7-1.1-6.6
		C197,2.9,195.3,0,192.4,0c-0.1,0-0.1,0-0.2,0c-0.7,0-1.4,0.3-2,0.7c-0.3,0.2-0.5,0.5-0.8,0.8c-0.7,0.9-1.3,2.1-1.7,3.3
		c-0.1,0.4-0.3,0.8-0.4,1.2c-0.1,0.4-0.2,0.7-0.3,1.1c-4.8,18.2-8.2,36.6-10.7,55.3c-0.5,3.7-0.9,7.5-1.4,11.2
		c-0.4,3.7-0.8,7.5-1.1,11.3c-0.3,3.8-0.6,7.5-0.9,11.3c-0.3,3.4-0.6,7.1-0.8,10.8c-0.1,0.1-0.1,0.1-0.2,0.2
		c-0.1,0.1-0.1,0.1-0.2,0.2c-0.9,1.1-2.1,2.4-3.3,3.7c-3,3.2-6.8,6.7-10.7,9.7c-1,0.7-2,1.4-3,2.1c-1,0.6-2,1.2-3,1.8
		c-0.7,0.4-1.3,0.7-2,1c-1.3,0.6-2.7,1-3.9,1.3c-0.6,0.1-1.3,0.2-1.9,0.3c-0.3,0-0.6,0-0.9,0c-0.9-0.1-1.6-0.3-2.2-0.7
		c-0.8-0.5-1.4-1.3-1.8-2.3c-0.2-0.5-0.4-1-0.5-1.6c-0.1-0.6-0.2-1.2-0.3-1.9c-0.1-1.7-0.1-3.5,0.1-5.4c0.6-6.1,2.5-12.9,3.1-15.4
		c0.1-0.2,0.1-0.4,0.1-0.6c0.2-1.5-0.6-3-2.2-3.5c-1.7-0.4-3.1,0.3-3.9,2.4c-0.6,2.1-1.3,5-2,8.2c-0.2,0.9-0.4,1.8-0.5,2.8
		c-0.2,1.4-0.5,2.9-0.6,4.3c-0.1,1-0.2,1.9-0.2,2.9c-0.1,1.5-0.1,2.9,0,4.3c0.1,0.9,0.1,1.8,0.3,2.7c0.2,1.3,0.5,2.5,0.9,3.7
		c0.3,0.8,0.6,1.5,1,2.1c0.6,1,1.4,1.8,2.3,2.5c1.5,1.2,3.5,1.9,6,2.1h1c1.2,0,2.4-0.1,3.6-0.4c6-1.3,12.4-5.6,18.2-10.4
		c2.3-1.9,4.5-4,6.6-5.9c0,0.1,0,0.3,0,0.4c0,8.1,1.4,17.1,11.4,17.4c8.1,0,19-8.9,26.4-15.4c0,0.5,0,0.9,0.1,1.4
		c0.1,1.9,0.4,3.7,0.8,5.4c0.2,0.9,0.5,1.7,0.9,2.4c0.3,0.8,0.8,1.5,1.2,2.1c0.5,0.7,1.1,1.2,1.7,1.8c1,0.8,2.1,1.4,3.5,1.7
		c0.9,0.2,2,0.4,3.1,0.4c4.9,0,10.9-3.3,16.4-7.3c2.2-1.6,4.4-3.3,6.4-5c1-0.8,2-1.7,2.9-2.5c0.1,3,0.2,5.9,0.3,8.7
		c0.2,2.8,0.4,5.6,0.7,8.2c0,0.3,0.1,0.8,0.1,1.3c0.1,0.7,0.2,1.6,0.3,2.5c0.2,1.2,0.5,2.5,0.9,3.7c0.2,0.6,0.4,1.1,0.7,1.6
		c0.4,0.7,0.9,1.3,1.5,1.7c0.4,0.2,0.9,0.4,1.4,0.4c0.1,0,0.3,0,0.4,0c0.3-0.1,0.7-0.2,1-0.3c0.2-0.1,0.3-0.1,0.4-0.2
		c0.6-0.3,1.1-0.8,1.7-1.6c0.5-0.6,1-1.4,1.4-2.2c2.8-5,5.5-13.1,6.9-16.2c3.1-6.8,9.9-22.3,18.2-27.8c1.9-1.3,3.9-2,5.9-2
		c1.2,0,1.9,0.7,2.2,1.8c0.1,0.4,0.2,0.9,0.3,1.4c0.1,1.3,0,2.7-0.2,4c-0.1,0.5-0.2,1-0.2,1.4c-0.1,0.4-0.2,0.8-0.2,1.1
		c-2.6,8.3-8.5,15.8-16,20.3c-1.1,0.6-2.2,1.2-3.3,1.7c-0.3,0.1-0.5,0.3-0.8,0.5c-0.4,0.4-0.8,0.9-1,1.5c-0.1,0.3-0.1,0.6-0.2,0.9
		c0,0.1,0,0.3,0,0.4c0.1,1,0.7,1.8,1.9,2c0,0,0.1,0,0.2,0c0.2,0,0.4,0,0.7-0.1c0.6-0.1,1.6-0.4,2.9-0.8c2.6-0.9,6.7-2.8,12.5-6.2
		c0.7-0.4,1.5-0.9,2.3-1.4c1.8-1.2,3.6-2.3,5.2-3.4c0.6-0.4,1.3-0.8,1.8-1.2c0.3-0.2,0.6-0.4,0.8-0.5c0.6-0.4,1.1-0.8,1.7-1.2
		c0,0,0,0,0,0c0,0,0,0-0.1,0.1c0.4-0.3,0.8-0.5,1-0.7c-0.7,2.1-1.1,4.1-1.1,5.9c0,4,1.8,7.1,6.3,8.4c0.4,0.1,0.7,0.2,1.1,0.2
		c0.3,0,0.7,0,1.1,0c4.1,0,8.4-2.9,12.9-6.5c2.7-2.1,5.5-4.5,8.4-6.6c0.6-0.5,1.3-0.9,1.9-1.3c0.3-0.2,0.6-0.4,1-0.6
		c1.6-1,3.2-1.9,4.9-2.6c0.9,1.1,1.7,2.4,2.5,3.7c2.4,4,4.5,8.6,8.5,11.2c1.8,1.2,3.9,2,6.7,2.2h0.5c0.4,0,0.9,0,1.3-0.1
		c2.3-0.3,4.7-1.2,7.2-2.6c1-0.5,2-1.1,3-1.8c1.5-1,3-2.1,4.5-3.2c2.5-1.9,4.9-3.9,7.1-5.9c0,1.2,0.1,2.3,0.3,3.3
		c0.8,4.6,3.5,7.6,7.4,9.2c1.3,0.5,2.7,0.9,4.3,1.1c1,0.1,2.1,0.2,3.2,0.2c0.9,0,1.8,0,2.7-0.1c1.8-0.1,3.6-0.4,5.5-0.9
		c1-0.2,1.9-0.5,3-0.9l1.6-0.5c5.9-1.7,12.7-6.5,18.4-11.1c3.4-2.8,6.4-5.5,8.5-7.4C434.3,111.3,434.3,109.1,433,107.8 M390.5,104.4
		c1.2-2,2.7-4,4.5-5.6c0.7-0.6,1.5-1.2,2.3-1.8c0.1-0.1,0.2-0.1,0.4-0.2c0.5-0.3,1.2-0.6,2-1c0.3-0.1,0.6-0.2,0.9-0.3
		c0.6-0.2,1.2-0.3,1.8-0.4c0.3,0,0.6,0,1,0c0.2,0,0.3,0,0.5,0.1c0.1,0,0.3,0.1,0.4,0.1l0,0c0,0,0,0,0.1,0c0.1,0.1,0.3,0.2,0.4,0.3
		c0.1,0.1,0.1,0.1,0.2,0.2s0.1,0.1,0.2,0.2c0.6,1.2-1.1,3-3.6,4.7c-0.2,0.1-0.4,0.3-0.6,0.4c-1.6,1.1-3.5,2.1-5.3,2.9
		c-1.3,0.6-2.7,1.1-3.8,1.4c-0.8,0.2-1.4,0.3-2,0.3C390,105.2,390.2,104.8,390.5,104.4 M254.9,91.7c0.7-6.9,1.7-14.8,3-22.8
		c0.1-0.8,0.3-1.6,0.4-2.3c0.3-1.6,0.5-3.1,0.8-4.7c0.1-0.8,0.3-1.6,0.4-2.3c0.4-2.3,0.9-4.6,1.4-6.9c0-0.2,0.1-0.4,0.1-0.6l0,0.1
		c0,0,2.8-14.1,5.3-21.7c0-0.1,0-0.2,0.1-0.3c0.6-2.2,1.1-3.3,1.5-3.8c0.1-0.1,0.1-0.1,0.2-0.2c0,0,0,0,0,0c0.1-0.1,0.2-0.1,0.2-0.1
		c0.1,0,0.2,0,0.3,0c0.1,0.1,0.2,0.3,0.2,0.4c0.1,0.5,0,1.2,0,1.2h0c-0.1,3.5-0.8,12.1-0.8,12.1c-0.3,4.3-0.8,8.7-1.4,12.9
		c-0.2,1.4-0.4,2.9-0.7,4.3c-0.5,2.9-1.1,5.7-1.7,8.6c-0.6,2.8-1.4,5.7-2.2,8.5c-1.9,6.9-4.3,13.6-7.2,20.4l0,0.1
		c0,0-0.2,0.5-0.2,0.5c0,0,0,0,0,0C254.6,94.9,254.9,91.7,254.9,91.7 M218,87.5c0-0.2,0-0.4,0-0.6c0-0.1,0-0.3,0-0.4
		c0.1-1,0.1-2.1,0.1-2.1l0-0.2c0.1-1.6,0.2-2.9,0.4-4.5c0.4-4.6,0.9-9.3,1.5-13.9c0.1-1.1,0.3-2.2,0.4-3.3c0.6-4.2,1.1-8.4,1.8-12.5
		c1.2-7.4,2.6-14.8,4.1-22c0-0.1,0.1-0.3,0.1-0.6c0-0.2,0.1-0.4,0.1-0.7c0.1-0.6,0.3-1.5,0.5-2.4c0-0.2,0.1-0.4,0.1-0.6
		c0.1-0.4,0.2-0.8,0.2-1.2c0.1-0.4,0.2-0.8,0.3-1.2c0.2-0.8,0.4-1.6,0.6-2.3c0.1-0.2,0.1-0.4,0.1-0.5c0.1-0.4,0.2-0.7,0.3-1
		c0.4-1.1,0.7-1.9,1-2.1c0,0,0.1-0.1,0.1-0.1c0.1,0,0.2,0,0.2,0.1c1.2,1.2-0.3,12.9-1.8,22.5c0,0,0,0,0,0c-1.1,8.7-2.8,17-2.8,17
		l0,0c-0.3,1.6-0.6,3.2-0.9,4.7c-0.6,2.9-1.2,5.7-1.8,8.6c-1.2,5.6-2.6,11.2-4,17l0,0c0,0,0,0,0,0.1c0,0,0,0.1,0,0.1c0,0,0,0,0,0
		c-0.2,0.8-0.8,3-0.8,3c0,0-0.1,0-0.1,0C218,88.5,218,88.1,218,87.5 M180.3,87.5c0-0.2,0-0.4,0-0.6c0-0.1,0-0.3,0-0.4
		c0.1-1,0.1-2.1,0.1-2.1l0-0.2c0.1-1.6,0.2-2.9,0.4-4.5c0.9-9.9,2.1-19.9,3.7-29.8c1.2-7.4,2.6-14.8,4.1-22c0-0.1,0.1-0.3,0.1-0.6
		c0-0.2,0.1-0.4,0.1-0.7c0.1-0.6,0.3-1.5,0.5-2.4c0-0.2,0.1-0.4,0.1-0.6c0.1-0.4,0.2-0.8,0.2-1.2c0.1-0.4,0.2-0.8,0.3-1.2
		c0.2-0.8,0.4-1.6,0.6-2.3c0-0.2,0.1-0.4,0.1-0.5c0.1-0.4,0.2-0.7,0.3-1c0.3-1.1,0.7-1.9,1-2.1c0,0,0.1-0.1,0.1-0.1
		c0.1,0,0.2,0,0.3,0.1c1,1,0.1,9.5-1.1,17.9c-0.1,0.4-0.1,0.9-0.2,1.3c0,0.5-0.1,1.1-0.2,1.7c-0.7,5.8-1.7,11.1-2.3,14.6v0
		c-0.5,2.9-1.1,5.8-1.7,8.7c-0.6,2.9-1.2,5.7-1.8,8.6c-1.2,5.6-2.6,11.2-4,17l0,0c0,0,0,0,0,0.1c0,0,0,0.1,0,0.1c0,0,0,0,0,0
		c-0.2,0.8-0.8,3-0.8,3c0,0-0.1,0-0.1,0C180.2,88.5,180.3,88.1,180.3,87.5 M333.1,108.9v0.8c-1.4,0.6-2.9,1.3-4.3,2.3
		c-2.1,1.3-4.2,3-6.3,4.7c-0.6,0.5-1.2,1-1.8,1.5c-0.3,0.2-0.6,0.5-0.9,0.7c-0.6,0.5-1.1,1-1.7,1.4c-0.6,0.5-1.1,0.9-1.6,1.4
		c-1.6,1.3-3.1,2.5-4.5,3.4c-0.7,0.4-1.3,0.8-1.9,1.1c-0.4,0.2-0.7,0.3-1.1,0.4c-0.3,0.1-0.7,0.2-0.9,0.2c-0.1,0-0.3,0-0.5,0
		c-0.1,0-0.2,0-0.3-0.1c-0.1,0-0.2-0.1-0.2-0.2c-2.7-2-0.3-7,3.5-12c0.8-1,1.6-2,2.4-3c0.6-0.7,1.1-1.3,1.7-1.9
		c1.4-1.6,2.9-3,4.3-4.3c1.9-1.8,3.6-3.1,4.6-3.8c1.5-1,2.8-1.6,3.9-2.1c1.1-0.4,2.1-0.6,2.9-0.6c2.2,0,2.8,2.1,2.8,5.8
		C333.2,105.9,333.1,107.3,333.1,108.9"/>
	<polygon class="st1" points="102.6,156.5 102.6,160.2 108.4,160.2 108.4,162.1 102.6,162.1 102.6,166.7 100.4,166.7 100.4,154.6 
		109.2,154.6 109.2,156.5 	"/>
	<path class="st1" d="M114.1,160.7c0-3.6,2.8-6.2,6.5-6.2c3.7,0,6.5,2.6,6.5,6.2c0,3.6-2.8,6.2-6.5,6.2
		C116.9,166.9,114.1,164.2,114.1,160.7 M124.8,160.7c0-2.5-1.8-4.2-4.2-4.2c-2.4,0-4.2,1.8-4.2,4.2s1.8,4.2,4.2,4.2
		C123,164.9,124.8,163.1,124.8,160.7"/>
	<path class="st1" d="M141.1,166.7l-2.5-3.5c-0.2,0-0.3,0-0.5,0h-2.7v3.5h-2.2v-12h5c3.2,0,5.1,1.6,5.1,4.3c0,1.8-0.9,3.2-2.6,3.8
		l2.8,4H141.1z M138.1,156.5h-2.6v4.8h2.6c2,0,3-0.9,3-2.4S140.1,156.5,138.1,156.5"/>
	<path class="st1" d="M157.1,165.4l0.8-1.7c1,0.8,2.5,1.3,4,1.3c1.9,0,2.7-0.7,2.7-1.6c0-2.6-7.2-0.9-7.2-5.4c0-1.9,1.5-3.6,4.8-3.6
		c1.4,0,3,0.4,4,1.1l-0.7,1.7c-1.1-0.6-2.3-0.9-3.3-0.9c-1.9,0-2.6,0.7-2.6,1.6c0,2.6,7.1,0.9,7.1,5.3c0,1.9-1.6,3.6-4.9,3.6
		C160,166.9,158.1,166.3,157.1,165.4"/>
	<polygon class="st1" points="181.8,164.8 181.8,166.7 172.7,166.7 172.7,154.6 181.5,154.6 181.5,156.5 175,156.5 175,159.7 
		180.8,159.7 180.8,161.5 175,161.5 175,164.8 	"/>
	<path class="st1" d="M195.9,166.7l-2.5-3.5c-0.2,0-0.3,0-0.5,0h-2.7v3.5h-2.2v-12h5c3.2,0,5.1,1.6,5.1,4.3c0,1.8-0.9,3.2-2.6,3.8
		l2.8,4H195.9z M192.9,156.5h-2.6v4.8h2.6c2,0,3-0.9,3-2.4S194.9,156.5,192.9,156.5"/>
	<polygon class="st1" points="215.4,154.6 210.2,166.7 208,166.7 202.7,154.6 205.1,154.6 209.1,163.9 213.2,154.6 	"/>
	<rect x="220.5" y="154.6" class="st1" width="2.2" height="12"/>
	<path class="st1" d="M228.9,160.7c0-3.6,2.8-6.2,6.4-6.2c2,0,3.6,0.7,4.8,2l-1.4,1.4c-0.9-0.9-2-1.4-3.2-1.4
		c-2.5,0-4.3,1.8-4.3,4.2c0,2.5,1.8,4.2,4.3,4.2c1.3,0,2.3-0.5,3.2-1.4l1.4,1.4c-1.1,1.3-2.8,2-4.8,2
		C231.6,166.9,228.9,164.3,228.9,160.7"/>
	<polygon class="st1" points="255.1,164.8 255.1,166.7 246,166.7 246,154.6 254.8,154.6 254.8,156.5 248.3,156.5 248.3,159.7 
		254.1,159.7 254.1,161.5 248.3,161.5 248.3,164.8 	"/>
	<path class="st1" d="M280.6,163.4c0,2.1-1.6,3.3-4.7,3.3h-6v-12h5.6c2.9,0,4.4,1.2,4.4,3.1c0,1.2-0.6,2.1-1.5,2.6
		C279.7,160.8,280.6,161.9,280.6,163.4 M272.1,156.4v3.3h3.2c1.5,0,2.4-0.5,2.4-1.6c0-1.1-0.9-1.7-2.4-1.7H272.1z M278.3,163.2
		c0-1.2-0.9-1.7-2.6-1.7h-3.6v3.5h3.6C277.4,164.9,278.3,164.4,278.3,163.2"/>
	<path class="st1" d="M286.6,161.4v-6.8h2.2v6.7c0,2.5,1.1,3.5,3.1,3.5s3-1.1,3-3.5v-6.7h2.2v6.8c0,3.5-2,5.4-5.3,5.4
		C288.6,166.9,286.6,164.9,286.6,161.4"/>
	<path class="st1" d="M303.1,165.4l0.8-1.7c1,0.8,2.5,1.3,4,1.3c1.9,0,2.7-0.7,2.7-1.6c0-2.6-7.2-0.9-7.2-5.4c0-1.9,1.5-3.6,4.8-3.6
		c1.4,0,3,0.4,4,1.1l-0.7,1.7c-1.1-0.6-2.3-0.9-3.3-0.9c-1.9,0-2.6,0.7-2.6,1.6c0,2.6,7.1,0.9,7.1,5.3c0,1.9-1.6,3.6-4.9,3.6
		C306,166.9,304.1,166.3,303.1,165.4"/>
	<rect x="318.7" y="154.6" class="st1" width="2.2" height="12"/>
	<polygon class="st1" points="338.7,154.6 338.7,166.7 336.8,166.7 330.2,158.5 330.2,166.7 328,166.7 328,154.6 329.8,154.6 
		336.5,162.8 336.5,154.6 	"/>
	<polygon class="st1" points="354.7,164.8 354.7,166.7 345.7,166.7 345.7,154.6 354.5,154.6 354.5,156.5 347.9,156.5 347.9,159.7 
		353.7,159.7 353.7,161.5 347.9,161.5 347.9,164.8 	"/>
	<path class="st1" d="M360,165.4l0.8-1.7c1,0.8,2.5,1.3,4,1.3c1.9,0,2.7-0.7,2.7-1.6c0-2.6-7.2-0.9-7.2-5.4c0-1.9,1.5-3.6,4.8-3.6
		c1.4,0,3,0.4,4,1.1l-0.7,1.7c-1.1-0.6-2.3-0.9-3.3-0.9c-1.9,0-2.6,0.7-2.6,1.6c0,2.6,7.1,0.9,7.1,5.3c0,1.9-1.6,3.6-4.9,3.6
		C362.9,166.9,361,166.3,360,165.4"/>
	<path class="st1" d="M374.6,165.4l0.8-1.7c1,0.8,2.5,1.3,4,1.3c1.9,0,2.7-0.7,2.7-1.6c0-2.6-7.2-0.9-7.2-5.4c0-1.9,1.5-3.6,4.8-3.6
		c1.4,0,3,0.4,4,1.1l-0.7,1.7c-1.1-0.6-2.3-0.9-3.3-0.9c-1.9,0-2.6,0.7-2.6,1.6c0,2.6,7.1,0.9,7.1,5.3c0,1.9-1.6,3.6-4.9,3.6
		C377.5,166.9,375.6,166.3,374.6,165.4"/>
	<polygon class="st1" points="399.2,164.8 399.2,166.7 390.2,166.7 390.2,154.6 399,154.6 399,156.5 392.4,156.5 392.4,159.7 
		398.3,159.7 398.3,161.5 392.4,161.5 392.4,164.8 	"/>
	<path class="st1" d="M404.5,165.4l0.8-1.7c1,0.8,2.5,1.3,4,1.3c1.9,0,2.7-0.7,2.7-1.6c0-2.6-7.2-0.9-7.2-5.4c0-1.9,1.5-3.6,4.8-3.6
		c1.4,0,3,0.4,4,1.1l-0.7,1.7c-1.1-0.6-2.3-0.9-3.3-0.9c-1.9,0-2.6,0.7-2.6,1.6c0,2.6,7.1,0.9,7.1,5.3c0,1.9-1.6,3.6-4.9,3.6
		C407.4,166.9,405.5,166.3,404.5,165.4"/>
</g>
</svg>
